<mxfile host="app.diagrams.net" modified="2023-03-30T09:35:28.817Z" agent="Mozilla/5.0 (Windows NT 10.0; Win64; x64) AppleWebKit/537.36 (KHTML, like Gecko) Chrome/111.0.0.0 Safari/537.36" etag="lWHGQT-RFqlHXcWwsnzj" version="21.1.1" type="google">
  <diagram name="Сторінка-1" id="VKPv65X0l94i4WQbLAY_">
    <mxGraphModel grid="1" page="1" gridSize="10" guides="1" tooltips="1" connect="1" arrows="1" fold="1" pageScale="1" pageWidth="827" pageHeight="1169" background="none" math="0" shadow="0">
      <root>
        <mxCell id="0" />
        <mxCell id="1" parent="0" />
        <mxCell id="5YpIn79fk9xGHt1B1sF2-10" value="" style="rounded=0;whiteSpace=wrap;html=1;perimeterSpacing=1;labelBackgroundColor=none;fillColor=#647687;strokeColor=#314354;fontColor=#ffffff;" vertex="1" parent="1">
          <mxGeometry x="160" y="50" width="840" height="760" as="geometry" />
        </mxCell>
        <mxCell id="0GrD6pJQcrozJYZS8G0e-5" value="" style="edgeStyle=orthogonalEdgeStyle;rounded=1;orthogonalLoop=1;jettySize=auto;html=1;strokeColor=#E07A5F;fontColor=default;fillColor=#F2CC8F;labelBackgroundColor=none;" edge="1" parent="1" source="S8yNesrK6YwU6jt9Z6hK-4" target="0GrD6pJQcrozJYZS8G0e-4">
          <mxGeometry relative="1" as="geometry" />
        </mxCell>
        <mxCell id="S8yNesrK6YwU6jt9Z6hK-4" value="Пошук товарів" style="rounded=1;whiteSpace=wrap;html=1;labelBackgroundColor=none;fillColor=#F2CC8F;strokeColor=#E07A5F;fontColor=#393C56;" vertex="1" parent="1">
          <mxGeometry x="250" y="110" width="120" height="60" as="geometry" />
        </mxCell>
        <mxCell id="S8yNesrK6YwU6jt9Z6hK-11" value="Користувач&lt;br&gt;" style="shape=umlActor;verticalLabelPosition=bottom;verticalAlign=top;html=1;outlineConnect=0;labelBackgroundColor=none;fillColor=#F2CC8F;strokeColor=#E07A5F;fontColor=#393C56;rounded=1;" vertex="1" parent="1">
          <mxGeometry x="60" y="60" width="30" height="60" as="geometry" />
        </mxCell>
        <mxCell id="S8yNesrK6YwU6jt9Z6hK-12" value="Авторизація/Реєстрація" style="rounded=1;whiteSpace=wrap;html=1;labelBackgroundColor=none;fillColor=#F2CC8F;strokeColor=#E07A5F;fontColor=#393C56;" vertex="1" parent="1">
          <mxGeometry x="250" y="290" width="120" height="60" as="geometry" />
        </mxCell>
        <mxCell id="S8yNesrK6YwU6jt9Z6hK-21" style="edgeStyle=orthogonalEdgeStyle;rounded=1;orthogonalLoop=1;jettySize=auto;html=1;labelBackgroundColor=none;strokeColor=#E07A5F;fontColor=default;" edge="1" parent="1" source="S8yNesrK6YwU6jt9Z6hK-13" target="S8yNesrK6YwU6jt9Z6hK-20">
          <mxGeometry relative="1" as="geometry" />
        </mxCell>
        <mxCell id="S8yNesrK6YwU6jt9Z6hK-13" value="Додавання у кошик товар" style="rounded=1;whiteSpace=wrap;html=1;labelBackgroundColor=none;fillColor=#F2CC8F;strokeColor=#E07A5F;fontColor=#393C56;" vertex="1" parent="1">
          <mxGeometry x="560" y="110" width="120" height="60" as="geometry" />
        </mxCell>
        <mxCell id="S8yNesrK6YwU6jt9Z6hK-14" value="Перегляд Акцій/&lt;br&gt;Знижок" style="rounded=1;whiteSpace=wrap;html=1;labelBackgroundColor=none;fillColor=#F2CC8F;strokeColor=#E07A5F;fontColor=#393C56;" vertex="1" parent="1">
          <mxGeometry x="250" y="200" width="120" height="60" as="geometry" />
        </mxCell>
        <mxCell id="S8yNesrK6YwU6jt9Z6hK-16" value="" style="endArrow=classic;html=1;rounded=1;entryX=0;entryY=0.75;entryDx=0;entryDy=0;labelBackgroundColor=none;strokeColor=#E07A5F;fontColor=default;" edge="1" parent="1" source="S8yNesrK6YwU6jt9Z6hK-11" target="S8yNesrK6YwU6jt9Z6hK-4">
          <mxGeometry width="50" height="50" relative="1" as="geometry">
            <mxPoint x="230" y="160" as="sourcePoint" />
            <mxPoint x="280" y="110" as="targetPoint" />
          </mxGeometry>
        </mxCell>
        <mxCell id="S8yNesrK6YwU6jt9Z6hK-17" value="" style="endArrow=classic;html=1;rounded=1;entryX=0;entryY=0.25;entryDx=0;entryDy=0;labelBackgroundColor=none;strokeColor=#E07A5F;fontColor=default;" edge="1" parent="1" source="S8yNesrK6YwU6jt9Z6hK-11" target="S8yNesrK6YwU6jt9Z6hK-14">
          <mxGeometry width="50" height="50" relative="1" as="geometry">
            <mxPoint x="70" y="90" as="sourcePoint" />
            <mxPoint x="170" y="65" as="targetPoint" />
          </mxGeometry>
        </mxCell>
        <mxCell id="S8yNesrK6YwU6jt9Z6hK-18" value="" style="endArrow=classic;html=1;rounded=1;entryX=0;entryY=0;entryDx=0;entryDy=0;labelBackgroundColor=none;strokeColor=#E07A5F;fontColor=default;" edge="1" parent="1" source="S8yNesrK6YwU6jt9Z6hK-11" target="S8yNesrK6YwU6jt9Z6hK-12">
          <mxGeometry width="50" height="50" relative="1" as="geometry">
            <mxPoint x="100" y="120" as="sourcePoint" />
            <mxPoint x="170" y="135" as="targetPoint" />
          </mxGeometry>
        </mxCell>
        <mxCell id="S8yNesrK6YwU6jt9Z6hK-20" value="Оформлення замовлення" style="rounded=1;whiteSpace=wrap;html=1;labelBackgroundColor=none;fillColor=#F2CC8F;strokeColor=#E07A5F;fontColor=#393C56;" vertex="1" parent="1">
          <mxGeometry x="710" y="110" width="120" height="60" as="geometry" />
        </mxCell>
        <mxCell id="S8yNesrK6YwU6jt9Z6hK-22" value="Продавець" style="shape=umlActor;verticalLabelPosition=bottom;verticalAlign=top;html=1;outlineConnect=0;labelBackgroundColor=none;fillColor=#F2CC8F;strokeColor=#E07A5F;fontColor=#393C56;rounded=1;" vertex="1" parent="1">
          <mxGeometry x="60" y="585" width="30" height="60" as="geometry" />
        </mxCell>
        <mxCell id="S8yNesrK6YwU6jt9Z6hK-26" value="Додавання Товарів/&lt;br&gt;Редагування Товарів" style="rounded=1;whiteSpace=wrap;html=1;labelBackgroundColor=none;fillColor=#F2CC8F;strokeColor=#E07A5F;fontColor=#393C56;" vertex="1" parent="1">
          <mxGeometry x="250" y="460" width="120" height="60" as="geometry" />
        </mxCell>
        <mxCell id="0GrD6pJQcrozJYZS8G0e-2" value="Створення Акцій" style="rounded=1;whiteSpace=wrap;html=1;labelBackgroundColor=none;fillColor=#F2CC8F;strokeColor=#E07A5F;fontColor=#393C56;" vertex="1" parent="1">
          <mxGeometry x="250" y="650" width="120" height="60" as="geometry" />
        </mxCell>
        <mxCell id="0GrD6pJQcrozJYZS8G0e-3" value="Адміністратор&lt;br&gt;" style="shape=umlActor;verticalLabelPosition=bottom;verticalAlign=top;html=1;outlineConnect=0;labelBackgroundColor=none;fillColor=#F2CC8F;strokeColor=#E07A5F;fontColor=#393C56;rounded=1;" vertex="1" parent="1">
          <mxGeometry x="1050" y="460" width="30" height="60" as="geometry" />
        </mxCell>
        <mxCell id="0GrD6pJQcrozJYZS8G0e-6" value="" style="edgeStyle=orthogonalEdgeStyle;rounded=1;orthogonalLoop=1;jettySize=auto;html=1;strokeColor=#E07A5F;fontColor=default;fillColor=#F2CC8F;labelBackgroundColor=none;" edge="1" parent="1" source="0GrD6pJQcrozJYZS8G0e-4" target="S8yNesrK6YwU6jt9Z6hK-13">
          <mxGeometry relative="1" as="geometry" />
        </mxCell>
        <mxCell id="0GrD6pJQcrozJYZS8G0e-4" value="Перегляд Товару&lt;br&gt;" style="rounded=1;whiteSpace=wrap;html=1;labelBackgroundColor=none;fillColor=#F2CC8F;strokeColor=#E07A5F;fontColor=#393C56;" vertex="1" parent="1">
          <mxGeometry x="400" y="110" width="120" height="60" as="geometry" />
        </mxCell>
        <mxCell id="0GrD6pJQcrozJYZS8G0e-7" value="Перегляд списку замовлень/Обробка замовлень" style="rounded=1;whiteSpace=wrap;html=1;labelBackgroundColor=none;fillColor=#F2CC8F;strokeColor=#E07A5F;fontColor=#393C56;" vertex="1" parent="1">
          <mxGeometry x="250" y="555" width="120" height="60" as="geometry" />
        </mxCell>
        <mxCell id="0GrD6pJQcrozJYZS8G0e-11" value="Відправлення запиту на зворотній зв&#39;язок" style="rounded=1;whiteSpace=wrap;html=1;labelBackgroundColor=none;fillColor=#F2CC8F;strokeColor=#E07A5F;fontColor=#393C56;" vertex="1" parent="1">
          <mxGeometry x="250" y="370" width="120" height="60" as="geometry" />
        </mxCell>
        <mxCell id="0GrD6pJQcrozJYZS8G0e-12" value="" style="endArrow=classic;html=1;rounded=1;strokeColor=#E07A5F;fontColor=default;fillColor=#F2CC8F;entryX=0;entryY=0;entryDx=0;entryDy=0;labelBackgroundColor=none;" edge="1" parent="1" target="0GrD6pJQcrozJYZS8G0e-11">
          <mxGeometry width="50" height="50" relative="1" as="geometry">
            <mxPoint x="80" y="140" as="sourcePoint" />
            <mxPoint x="90" y="150" as="targetPoint" />
          </mxGeometry>
        </mxCell>
        <mxCell id="0GrD6pJQcrozJYZS8G0e-15" value="" style="endArrow=classic;html=1;rounded=1;strokeColor=#E07A5F;fontColor=default;fillColor=#F2CC8F;entryX=0;entryY=0.5;entryDx=0;entryDy=0;labelBackgroundColor=none;" edge="1" parent="1" target="S8yNesrK6YwU6jt9Z6hK-12">
          <mxGeometry width="50" height="50" relative="1" as="geometry">
            <mxPoint x="100" y="600" as="sourcePoint" />
            <mxPoint x="290" y="-90" as="targetPoint" />
          </mxGeometry>
        </mxCell>
        <mxCell id="0GrD6pJQcrozJYZS8G0e-16" value="" style="endArrow=classic;html=1;rounded=1;strokeColor=#E07A5F;fontColor=default;fillColor=#F2CC8F;entryX=0;entryY=0.5;entryDx=0;entryDy=0;labelBackgroundColor=none;" edge="1" parent="1" target="S8yNesrK6YwU6jt9Z6hK-26">
          <mxGeometry width="50" height="50" relative="1" as="geometry">
            <mxPoint x="110" y="610" as="sourcePoint" />
            <mxPoint x="320" y="20" as="targetPoint" />
          </mxGeometry>
        </mxCell>
        <mxCell id="0GrD6pJQcrozJYZS8G0e-17" value="" style="endArrow=classic;html=1;rounded=1;strokeColor=#E07A5F;fontColor=default;fillColor=#F2CC8F;entryX=0;entryY=0.25;entryDx=0;entryDy=0;labelBackgroundColor=none;" edge="1" parent="1" target="0GrD6pJQcrozJYZS8G0e-7">
          <mxGeometry width="50" height="50" relative="1" as="geometry">
            <mxPoint x="110" y="620" as="sourcePoint" />
            <mxPoint x="360" y="20" as="targetPoint" />
          </mxGeometry>
        </mxCell>
        <mxCell id="0GrD6pJQcrozJYZS8G0e-18" value="" style="endArrow=classic;html=1;rounded=1;strokeColor=#E07A5F;fontColor=default;fillColor=#F2CC8F;labelBackgroundColor=none;" edge="1" parent="1" target="0GrD6pJQcrozJYZS8G0e-2">
          <mxGeometry width="50" height="50" relative="1" as="geometry">
            <mxPoint x="100" y="630" as="sourcePoint" />
            <mxPoint x="360" y="95" as="targetPoint" />
          </mxGeometry>
        </mxCell>
        <mxCell id="0GrD6pJQcrozJYZS8G0e-22" value="Управління користувачами&lt;br&gt;" style="rounded=1;whiteSpace=wrap;html=1;labelBackgroundColor=none;fillColor=#F2CC8F;strokeColor=#E07A5F;fontColor=#393C56;" vertex="1" parent="1">
          <mxGeometry x="570" y="430" width="120" height="60" as="geometry" />
        </mxCell>
        <mxCell id="0GrD6pJQcrozJYZS8G0e-47" value="" style="endArrow=classic;html=1;rounded=1;strokeColor=#E07A5F;fontColor=default;fillColor=#F2CC8F;entryX=1;entryY=0.5;entryDx=0;entryDy=0;labelBackgroundColor=none;" edge="1" parent="1" target="5YpIn79fk9xGHt1B1sF2-2">
          <mxGeometry width="50" height="50" relative="1" as="geometry">
            <mxPoint x="1040" y="510" as="sourcePoint" />
            <mxPoint x="380" y="610" as="targetPoint" />
          </mxGeometry>
        </mxCell>
        <mxCell id="0GrD6pJQcrozJYZS8G0e-48" value="" style="endArrow=classic;html=1;rounded=1;strokeColor=#E07A5F;fontColor=default;fillColor=#F2CC8F;entryX=1;entryY=0.5;entryDx=0;entryDy=0;labelBackgroundColor=none;" edge="1" parent="1" target="5YpIn79fk9xGHt1B1sF2-3">
          <mxGeometry width="50" height="50" relative="1" as="geometry">
            <mxPoint x="1040" y="540" as="sourcePoint" />
            <mxPoint x="380" y="700" as="targetPoint" />
          </mxGeometry>
        </mxCell>
        <mxCell id="0GrD6pJQcrozJYZS8G0e-49" value="" style="endArrow=classic;html=1;rounded=1;strokeColor=#E07A5F;fontColor=default;fillColor=#F2CC8F;entryX=1;entryY=0.75;entryDx=0;entryDy=0;labelBackgroundColor=none;" edge="1" parent="1" target="0GrD6pJQcrozJYZS8G0e-22">
          <mxGeometry width="50" height="50" relative="1" as="geometry">
            <mxPoint x="1040" y="490" as="sourcePoint" />
            <mxPoint x="380" y="775" as="targetPoint" />
            <Array as="points" />
          </mxGeometry>
        </mxCell>
        <mxCell id="5YpIn79fk9xGHt1B1sF2-2" value="Додати Адміністратора" style="rounded=1;whiteSpace=wrap;html=1;labelBackgroundColor=none;fillColor=#F2CC8F;strokeColor=#E07A5F;fontColor=#393C56;" vertex="1" parent="1">
          <mxGeometry x="570" y="550" width="120" height="60" as="geometry" />
        </mxCell>
        <mxCell id="5YpIn79fk9xGHt1B1sF2-3" value="Заблокувати&amp;nbsp;&lt;br&gt;Продавця" style="rounded=1;whiteSpace=wrap;html=1;labelBackgroundColor=none;fillColor=#F2CC8F;strokeColor=#E07A5F;fontColor=#393C56;" vertex="1" parent="1">
          <mxGeometry x="570" y="645" width="120" height="60" as="geometry" />
        </mxCell>
        <mxCell id="5YpIn79fk9xGHt1B1sF2-13" value="" style="endArrow=classic;html=1;rounded=0;strokeColor=#E07A5F;fontColor=#393C56;fillColor=#F2CC8F;" edge="1" parent="1" target="S8yNesrK6YwU6jt9Z6hK-12">
          <mxGeometry width="50" height="50" relative="1" as="geometry">
            <mxPoint x="1040" y="480" as="sourcePoint" />
            <mxPoint x="620" y="330" as="targetPoint" />
          </mxGeometry>
        </mxCell>
        <mxCell id="5YpIn79fk9xGHt1B1sF2-14" value="" style="endArrow=classic;html=1;rounded=0;strokeColor=#E07A5F;fontColor=#393C56;fillColor=#F2CC8F;entryX=1;entryY=0.75;entryDx=0;entryDy=0;" edge="1" parent="1" target="S8yNesrK6YwU6jt9Z6hK-26">
          <mxGeometry width="50" height="50" relative="1" as="geometry">
            <mxPoint x="1040" y="500" as="sourcePoint" />
            <mxPoint x="500" y="500" as="targetPoint" />
          </mxGeometry>
        </mxCell>
        <mxCell id="5YpIn79fk9xGHt1B1sF2-15" value="" style="endArrow=classic;html=1;rounded=1;strokeColor=#E07A5F;fontColor=default;fillColor=#F2CC8F;labelBackgroundColor=none;entryX=1;entryY=0.25;entryDx=0;entryDy=0;" edge="1" parent="1" target="0GrD6pJQcrozJYZS8G0e-2">
          <mxGeometry width="50" height="50" relative="1" as="geometry">
            <mxPoint x="1040" y="520" as="sourcePoint" />
            <mxPoint x="260" y="676" as="targetPoint" />
            <Array as="points">
              <mxPoint x="710" y="620" />
            </Array>
          </mxGeometry>
        </mxCell>
        <mxCell id="ngApy8xwW_2WBI4vdzIO-2" value="" style="endArrow=classic;html=1;rounded=0;strokeColor=#E07A5F;fontColor=#393C56;fillColor=#F2CC8F;entryX=1;entryY=0.25;entryDx=0;entryDy=0;" edge="1" parent="1" target="0GrD6pJQcrozJYZS8G0e-7">
          <mxGeometry width="50" height="50" relative="1" as="geometry">
            <mxPoint x="1040" y="510" as="sourcePoint" />
            <mxPoint x="380" y="515" as="targetPoint" />
          </mxGeometry>
        </mxCell>
      </root>
    </mxGraphModel>
  </diagram>
</mxfile>
